<svg xmlns="http://www.w3.org/2000/svg" xmlns:xlink="http://www.w3.org/1999/xlink" width="286.247" height="393.03" viewBox="0 0 286.247 393.03">
  <defs>
    <clipPath id="clip-path">
      <rect id="Rectangle_2214" data-name="Rectangle 2214" width="10.907" height="10.898" fill="none"/>
    </clipPath>
    <clipPath id="clip-path-2">
      <rect id="Rectangle_2215" data-name="Rectangle 2215" width="8.54" height="12.727" fill="none"/>
    </clipPath>
    <clipPath id="clip-path-3">
      <rect id="Rectangle_2217" data-name="Rectangle 2217" width="11.228" height="11.233" fill="none"/>
    </clipPath>
    <clipPath id="clip-path-4">
      <rect id="Rectangle_2219" data-name="Rectangle 2219" width="10.658" height="10.843" fill="none"/>
    </clipPath>
  </defs>
  <g id="Group_14012" data-name="Group 14012" transform="translate(-37.376 -4779)">
    <g id="Group_13957" data-name="Group 13957" transform="translate(-577.675 -393)">
      <g id="Group_9833" data-name="Group 9833" transform="translate(615.052 5173)">
        <g id="BACKGROUND" transform="translate(22.139 19.207)">
          <path id="Path_1455" data-name="Path 1455" d="M230.55,555h0Z" transform="translate(0 -322.647)" fill="#20bae0"/>
          <path id="Path_1348" data-name="Path 1348" d="M375,402.009v0Z" transform="translate(-144.45 -165.667)" opacity="0.05" style="mix-blend-mode: multiply;isolation: isolate"/>
          <path id="Path_1354" data-name="Path 1354" d="M150.717,497.6c-8.358-8.762-9.936-15.554-10.243-16.958.7-1.74,2.744-11.518,19.989-21.6,10.953-6.408,19.845-11.554,31.927-16.944l10.082-1.461c22.378-9.962,78.858-113.033,78.858-113.033a294.5,294.5,0,0,1-31.062-27.873c-10.978-11.583-13.412-13.518-27.062-20.123-8.681-2.136-38.577-4.83-49.482-6.658-13.1-2.2-34.413-3.95-45.118-7.011-11.495-3.289-15.035-10.621-16.871-12.562.794-1.4,7.088-7.761,9.746-9.933a114.523,114.523,0,0,1,16.131-10.517c10.821-5.769,23.566-8.576,32.012-21.326,11.706-17.672,16.216-34.756,14.136-58.414-.148,0-.3,0-.444-.006,0,.777-.043.654-.12,0-1.574-.031-3.147-.074-4.728-.074s-3.182.043-4.771.075h0l.03.753c.335,8.2-.16,36-20.561,49.692A244.607,244.607,0,0,1,128.6,217.875c-15.673,8.188-25.134,13.129-28.3,33.816a45.174,45.174,0,0,0,.808,18.626c5.655,20.556,40.985,23.762,82.085,29.411,49.245,6.77,61.687,24.752,67.073,33.837.721,1.215,3.855,7.224,4.127,8.18.686,2.406.378,4.279,0,7.011-.983,7.113-.806,14.952-23.264,37.409-18.3,10.488-26.42,17.173-52.84,29.943-15.486,5.349-24.232,9.662-32.585,14.531-17.371,10.129-48.3,27.163-49.318,50,2.642,13.845-2.642-1.567,21.136,43.559h68.088l-10.49-7.671C164.308,508.622,156.513,503.678,150.717,497.6Z" transform="translate(-60.267 -151.379)" opacity="0.04" style="mix-blend-mode: multiply;isolation: isolate"/>
          <path id="Path_1355" data-name="Path 1355" d="M200.553,476.958c3.922-14.2,34.445-30.362,59.65-39.816s76.882-39.087,84.809-96.331c-1.762-25.54-18.409-48.088-65.849-57.906-39.073-8.087-109.918-10.822-105.69-30.577s45.515-23.871,64.977-48.571c10.319-13.1,13-27.116,13.443-37.869,1.089-7.926.308-7.288-.352-12.731-1.11-.014.3-.04.352-.051-.14,0-.279-.005-.419-.005-1.27,0-2.53.035-3.8.05.882,18.181-4.334,45.208-27.354,58.194-36.822,20.772-55.816,19.014-60.206,43.1-5.026,27.578,31.427,35.313,80.822,41.021,59.555,6.882,91.483,24.5,86.818,52.882-8.052,48.974-72.489,71.662-107.434,88.791-33.937,16.636-68.444,43.713-32.072,79.144L244.2,524.2C219.939,509.289,196.446,491.824,200.553,476.958Z" transform="translate(-127.913 -151.38)" fill="#444da1"/>
        </g>
        <g id="logo1" transform="translate(67.725 102.796)">
          <path id="Path_1394" data-name="Path 1394" d="M93.135,249.462c0,.679-5.17,1.229-11.548,1.229s-11.547-.55-11.547-1.229,5.17-1.229,11.547-1.229S93.135,248.783,93.135,249.462Z" transform="translate(-69.641 -216.778)" opacity="0.05" style="mix-blend-mode: multiply;isolation: isolate"/>
          <line id="Line_72" data-name="Line 72" y2="16.423" transform="translate(11.946 14.997)" fill="none" stroke="#222968" stroke-linecap="round" stroke-linejoin="round" stroke-width="2"/>
          <ellipse id="Ellipse_137" data-name="Ellipse 137" cx="11.946" cy="9.148" rx="11.946" ry="9.148" transform="translate(0 0)" fill="#222968"/>
          <path id="Path_1370" data-name="Path 1370" d="M95.368,245.042a2.174,2.174,0,1,1-2.1-1.607A1.9,1.9,0,0,1,95.368,245.042Z" transform="translate(-81.323 -213.623)" fill="#222968"/>
          <path id="Path_1373" data-name="Path 1373" d="M93.867,164.2c4.666,3.572,4.666,9.365,0,12.938a14.655,14.655,0,0,1-16.895,0Z" transform="translate(-73.473 -161.516)" opacity="0.1" style="mix-blend-mode: multiply;isolation: isolate"/>
        </g>
        <g id="logo1-2" data-name="logo1" transform="translate(131.678 2.477)">
          <path id="Path_1394-2" data-name="Path 1394" d="M92.826,249.446c0,.67-5.1,1.212-11.393,1.212s-11.393-.543-11.393-1.212,5.1-1.213,11.393-1.213S92.826,248.776,92.826,249.446Z" transform="translate(-69.646 -217.198)" opacity="0.05" style="mix-blend-mode: multiply;isolation: isolate"/>
          <line id="Line_72-2" data-name="Line 72" y2="16.203" transform="translate(11.787 14.796)" fill="none" stroke="#ff1616" stroke-linecap="round" stroke-linejoin="round" stroke-width="2"/>
          <path id="Path_78008" data-name="Path 78008" d="M11.787,0C18.3,0,23.574,4.041,23.574,9.026S18.3,18.052,11.787,18.052,0,14.011,0,9.026,5.277,0,11.787,0Z" transform="translate(0 0)" fill="#ff1616"/>
          <path id="Path_1370-2" data-name="Path 1370" d="M95.312,245.021a2.145,2.145,0,1,1-2.07-1.586A1.877,1.877,0,0,1,95.312,245.021Z" transform="translate(-81.455 -214.021)" fill="#ff1616"/>
          <path id="Path_1373-2" data-name="Path 1373" d="M93.641,164.2c4.6,3.525,4.6,9.24,0,12.765a14.46,14.46,0,0,1-16.669,0Z" transform="translate(-73.52 -161.552)" opacity="0.1" style="mix-blend-mode: multiply;isolation: isolate"/>
        </g>
        <g id="logo2" transform="translate(219.187 155.863)">
          <ellipse id="Ellipse_142" data-name="Ellipse 142" cx="10.659" cy="1.134" rx="10.659" ry="1.134" transform="translate(0.369 32.428)" opacity="0.05" style="mix-blend-mode: multiply;isolation: isolate"/>
          <line id="Line_73" data-name="Line 73" y2="18.584" transform="translate(11.028 13.843)" fill="none" stroke="#444da1" stroke-linecap="round" stroke-linejoin="round" stroke-width="2"/>
          <ellipse id="Ellipse_138" data-name="Ellipse 138" cx="11.028" cy="8.445" rx="11.028" ry="8.445" transform="translate(0)" fill="#444da1"/>
          <path id="Path_1374" data-name="Path 1374" d="M256.554,274.538a2.007,2.007,0,1,1-1.937-1.483A1.756,1.756,0,0,1,256.554,274.538Z" transform="translate(-243.59 -242.111)" fill="#444da1"/>
          <path id="Path_1392" data-name="Path 1392" d="M254.077,182.98c4.307,3.3,4.307,8.645,0,11.943a13.527,13.527,0,0,1-15.6,0l7.608-5.826Z" transform="translate(-235.252 -180.507)" opacity="0.1" style="mix-blend-mode: multiply;isolation: isolate"/>
        </g>
        <g id="logo5" transform="translate(96.605 347.317)">
          <path id="Path_1393" data-name="Path 1393" d="M71.508,451.215c0,.677-5.16,1.226-11.524,1.226s-11.524-.549-11.524-1.226,5.16-1.227,11.524-1.227S71.508,450.537,71.508,451.215Z" transform="translate(-48.061 -415.377)" opacity="0.05" style="mix-blend-mode: multiply;isolation: isolate"/>
          <line id="Line_74" data-name="Line 74" y2="19.645" transform="translate(11.923 14.967)" fill="none" stroke="#222968" stroke-linecap="round" stroke-linejoin="round" stroke-width="2"/>
          <ellipse id="Ellipse_143" data-name="Ellipse 143" cx="11.923" cy="9.13" rx="11.923" ry="9.13" transform="translate(0)" fill="#222968"/>
          <ellipse id="Ellipse_144" data-name="Ellipse 144" cx="2.094" cy="1.604" rx="2.094" ry="1.604" transform="translate(9.828 33.008)" fill="#222968"/>
          <path id="Path_1405" data-name="Path 1405" d="M72.253,356.531c4.656,3.565,4.656,9.346,0,12.912a14.626,14.626,0,0,1-16.861,0Z" transform="translate(-51.9 -353.857)" opacity="0.1" style="mix-blend-mode: multiply;isolation: isolate"/>
        </g>
        <g id="logo3" transform="translate(173.405 235.265)">
          <ellipse id="Ellipse_141" data-name="Ellipse 141" cx="11.365" cy="1.21" rx="11.365" ry="1.21" transform="translate(0.393 36.693)" opacity="0.05" style="mix-blend-mode: multiply;isolation: isolate"/>
          <line id="Line_75" data-name="Line 75" y2="22.01" transform="translate(11.758 14.76)" fill="none" stroke="#ff1616" stroke-linecap="round" stroke-linejoin="round" stroke-width="2"/>
          <ellipse id="Ellipse_145" data-name="Ellipse 145" cx="11.758" cy="9.004" rx="11.758" ry="9.004" fill="#ff1616"/>
          <path id="Path_1406" data-name="Path 1406" d="M426.474,326.961a2.139,2.139,0,1,1-2.065-1.582A1.873,1.873,0,0,1,426.474,326.961Z" transform="translate(-412.65 -290.191)" fill="#ff1616"/>
          <path id="Path_1409" data-name="Path 1409" d="M424.773,228.793c4.592,3.516,4.592,9.217,0,12.734a14.425,14.425,0,0,1-16.629,0Z" transform="translate(-404.7 -226.156)" opacity="0.1" style="mix-blend-mode: multiply;isolation: isolate"/>
        </g>
        <text id="_Enrollment_and_onboarding_of_students_into_the_program" data-name="  Enrollment and onboarding of 
  students into the program" transform="translate(158.247 9)" fill="#ff1616" font-size="9" font-family="SegoeUI, Segoe UI"><tspan x="0" y="0" xml:space="preserve">  Enrollment and onboarding of </tspan><tspan x="0" y="10" xml:space="preserve">  students into the program</tspan></text>
        <text id="The_setting_of_realistic_goals_and_learning_outcomes_to_achieve" data-name="The setting of realistic goals and 
learning outcomes to achieve" transform="translate(108.527 109.319)" fill="#222968" font-size="9" font-family="SegoeUI, Segoe UI"><tspan x="0" y="0">The setting of realistic goals and </tspan><tspan x="0" y="10">learning outcomes to achieve</tspan></text>
        <g id="Group_9800" data-name="Group 9800" transform="translate(61.5 170.261)">
          <text id="Orientation_preparation_and_introduction_to_a_mentor_" data-name="Orientation, preparation, 
and introduction to a mentor " transform="translate(0 9)" fill="#444da1" font-size="9" font-family="SegoeUI, Segoe UI"><tspan x="0" y="0">Orientation, preparation, </tspan><tspan x="0" y="10">and introduction to a mentor </tspan></text>
        </g>
        <g id="Group_9802" data-name="Group 9802" transform="translate(125.325 349.794)">
          <text id="Certification_" data-name="Certification  " transform="translate(0 10)" fill="#222968" font-size="9" font-family="SegoeUI-Semibold, Segoe UI" font-weight="600"><tspan x="0" y="0" xml:space="preserve">Certification  </tspan></text>
        </g>
        <g id="Group_9801" data-name="Group 9801" transform="translate(0 237.503)">
          <text id="Focus_on_student_development_throughout_the_program_keeping_track_of_goals" data-name="Focus on student development 
throughout the program, 
keeping track of goals" transform="translate(0 11)" fill="#ff1616" font-size="10" font-family="SegoeUI, Segoe UI"><tspan x="0" y="0">Focus on student development </tspan><tspan x="0" y="12">throughout the program, </tspan><tspan x="0" y="24">keeping track of goals</tspan></text>
        </g>
      </g>
      <g id="Group_13955" data-name="Group 13955" transform="translate(682.924 5177.367)">
        <g id="Group_13930" data-name="Group 13930" transform="translate(28.897 345.94)">
          <g id="Group_13929" data-name="Group 13929" transform="translate(6 1)" clip-path="url(#clip-path)">
            <path id="Path_80195" data-name="Path 80195" d="M9.793,0c.027.008.053.017.081.024a.911.911,0,0,1,.707.868q0,3.135,0,6.27c0,.01,0,.021,0,.04h-.458V7.07q0-3.034,0-6.068A.9.9,0,0,0,10.1.8.446.446,0,0,0,9.72.465,1.477,1.477,0,0,0,9.55.459H1.028a1.3,1.3,0,0,0-.191.01A.446.446,0,0,0,.468.857a1.573,1.573,0,0,0-.005.16q0,4.42,0,8.84a.509.509,0,0,0,.558.554c.835-.012,1.671,0,2.506,0h.136v.449c-.036,0-.073.006-.11.006q-1.291,0-2.581,0A.915.915,0,0,1,0,9.891Q0,5.45,0,1.009a.92.92,0,0,1,.772-1C.779.01.784,0,.79,0Z" transform="translate(0)" fill="#fff"/>
            <path id="Path_80196" data-name="Path 80196" d="M199.4,184.521c-.431-.022-.839-.04-1.247-.067a.144.144,0,0,0-.163.093c-.184.364-.374.726-.574,1.11l-1.38-2.393-1.208,2.4-.287-.483c-.122-.2-.244-.408-.363-.615a.108.108,0,0,0-.126-.064c-.4.048-.805.09-1.208.133-.017,0-.034,0-.06,0,.02-.042.036-.078.053-.112q.687-1.365,1.375-2.73a.173.173,0,0,0,.005-.166,1.942,1.942,0,0,1,.279-2.138,2.036,2.036,0,0,1,3.567.918,1.9,1.9,0,0,1-.19,1.293.156.156,0,0,0,0,.174q.732,1.263,1.458,2.529c.019.033.036.067.065.12m-3.335-2.182a1.568,1.568,0,1,0-1.577-1.567,1.572,1.572,0,0,0,1.577,1.567m-1.51-.2-.984,1.955c.255-.026.488-.046.72-.077a.121.121,0,0,1,.141.074c.116.2.238.4.365.615l.968-1.923a2.089,2.089,0,0,1-1.209-.645m4.031,1.886-1.059-1.837a2.094,2.094,0,0,1-1.232.606l1.1,1.909c.119-.229.229-.435.333-.645a.117.117,0,0,1,.132-.075c.233.017.467.027.725.042" transform="translate(-188.496 -174.763)" fill="#fff"/>
            <path id="Path_80197" data-name="Path 80197" d="M71.971,99.3h-3.4c-.2,0-.31-.082-.306-.227s.111-.221.305-.221h6.812c.025,0,.05,0,.075,0a.229.229,0,0,1,.226.224.223.223,0,0,1-.235.222c-.508,0-1.016,0-1.524,0H71.971" transform="translate(-66.744 -96.647)" fill="#fff"/>
            <path id="Path_80198" data-name="Path 80198" d="M70.008,180.937h1.45c.032,0,.064,0,.1,0a.221.221,0,0,1,.2.2.217.217,0,0,1-.151.23.428.428,0,0,1-.126.016H68.547a.508.508,0,0,1-.1-.005.226.226,0,0,1-.188-.236.221.221,0,0,1,.22-.205c.142,0,.284,0,.426,0h1.1" transform="translate(-66.744 -176.909)" fill="#fff"/>
            <path id="Path_80199" data-name="Path 80199" d="M69.775,264.15c-.426,0-.852,0-1.279,0a.221.221,0,0,1-.214-.327.239.239,0,0,1,.233-.12h1.023c.494,0,.987,0,1.481,0a.376.376,0,0,1,.173.038.2.2,0,0,1,.1.237.218.218,0,0,1-.227.171c-.376,0-.753,0-1.129,0h-.16" transform="translate(-66.734 -257.832)" fill="#fff"/>
          </g>
        </g>
        <g id="Group_13928" data-name="Group 13928" transform="translate(157.696 155.632)">
          <rect id="Rectangle_2212" data-name="Rectangle 2212" width="9.495" height="0.826" rx="0.413" transform="translate(0 2.89)" fill="#fff"/>
          <rect id="Rectangle_2213" data-name="Rectangle 2213" width="9.495" height="0.413" rx="0.206" transform="translate(0 8.256)" fill="#fff"/>
          <g id="Group_13922" data-name="Group 13922" transform="translate(0.551)">
            <circle id="Ellipse_155" data-name="Ellipse 155" cx="1.032" cy="1.032" r="1.032" transform="translate(0.275)" fill="#fff"/>
            <path id="Path_80194" data-name="Path 80194" d="M1.282,0C1.99,0,2.563.343,2.563.767,2.563,2.3,0,2.3,0,.767,0,.343.574,0,1.282,0Z" transform="translate(0 1.619)" fill="#fff"/>
          </g>
          <g id="Group_13923" data-name="Group 13923" transform="translate(3.541)">
            <circle id="Ellipse_155-2" data-name="Ellipse 155" cx="0.958" cy="0.958" r="0.958" transform="translate(0.291)" fill="#fff"/>
            <path id="Path_80194-2" data-name="Path 80194" d="M1.282,0C1.99,0,2.563.343,2.563.767,2.563,2.3,0,2.3,0,.767,0,.343.574,0,1.282,0Z" transform="translate(0 1.619)" fill="#fff"/>
          </g>
          <g id="Group_13926" data-name="Group 13926" transform="translate(5.159 4.03)">
            <circle id="Ellipse_155-3" data-name="Ellipse 155" cx="1.227" cy="1.227" r="1.227" transform="translate(0.372 0)" fill="#fff"/>
            <path id="Path_80194-3" data-name="Path 80194" d="M1.641,0c.906,0,1.641.44,1.641.982C3.282,2.944,0,2.944,0,.982,0,.44.735,0,1.641,0Z" transform="translate(0 2.072)" fill="#fff"/>
          </g>
          <g id="Group_13927" data-name="Group 13927" transform="translate(1.261 4.03)">
            <circle id="Ellipse_155-4" data-name="Ellipse 155" cx="1.227" cy="1.227" r="1.227" transform="translate(0.372 0)" fill="#fff"/>
            <path id="Path_80194-4" data-name="Path 80194" d="M1.641,0c.906,0,1.641.44,1.641.982C3.282,2.944,0,2.944,0,.982,0,.44.735,0,1.641,0Z" transform="translate(0 2.072)" fill="#fff"/>
          </g>
          <g id="Group_13924" data-name="Group 13924" transform="translate(6.53)">
            <circle id="Ellipse_155-5" data-name="Ellipse 155" cx="1.032" cy="1.032" r="1.032" transform="translate(0.075)" fill="#fff"/>
            <path id="Path_80194-5" data-name="Path 80194" d="M1.282,0C1.99,0,2.563.343,2.563.767,2.563,2.3,0,2.3,0,.767,0,.343.574,0,1.282,0Z" transform="translate(0 1.619)" fill="#fff"/>
          </g>
        </g>
        <g id="Group_13932" data-name="Group 13932" transform="translate(112.919 233.172)">
          <g id="Group_13931" data-name="Group 13931" clip-path="url(#clip-path-2)">
            <path id="Path_80200" data-name="Path 80200" d="M.2,57.3A.328.328,0,0,1,0,56.95q.006-5.278,0-10.555c0-.254.064-.317.317-.317q.97,0,1.939,0a.506.506,0,0,1,.193.042.936.936,0,0,0-.362.569c-.009.032-.092.059-.141.059-.369,0-.739,0-1.108,0-.236,0-.321.088-.321.325q0,4.6,0,9.2c0,.239.073.315.307.316H7.718c.226,0,.309-.086.309-.32q0-4.6,0-9.2c0-.224-.094-.319-.315-.32-.429,0-.858,0-1.3,0-.079-.235-.131-.486-.392-.61l.026-.043a1.056,1.056,0,0,1,.145-.02q1.035,0,2.069,0c.2,0,.276.08.276.277q0,5.327,0,10.653a.319.319,0,0,1-.191.288Z" transform="translate(0 -44.569)" fill="#fff"/>
            <path id="Path_80201" data-name="Path 80201" d="M71.058,1.756c-.105-.3-.22-.579-.293-.864a.67.67,0,0,1,.215-.725.669.669,0,0,1,.687-.122.684.684,0,0,1,.421.849,6.885,6.885,0,0,1-.262.714c-.015.039-.035.076-.065.141.075.008.13.018.185.019.272,0,.543,0,.815,0a.443.443,0,0,1,.517.383c.032.1.064.207.1.311a.26.26,0,0,1-.192.375.829.829,0,0,1-.256.033q-1.5,0-3,0a.84.84,0,0,1-.3-.052.242.242,0,0,1-.15-.341c.034-.114.069-.228.1-.343a.429.429,0,0,1,.482-.366c.288,0,.576,0,.864,0,.046,0,.093-.008.133-.012M71.43.921A.325.325,0,0,0,71.754.6.328.328,0,0,0,71.1.612a.327.327,0,0,0,.332.309" transform="translate(-67.184 0)" fill="#fff"/>
            <path id="Path_80202" data-name="Path 80202" d="M112.506,321.4h1.513c.193,0,.3.087.31.237s-.122.262-.311.263q-1.513,0-3.025,0c-.126,0-.252-.031-.287-.164a.321.321,0,0,1,.043-.249.326.326,0,0,1,.228-.084c.51-.007,1.019,0,1.529,0" transform="translate(-107.076 -310.885)" fill="#fff"/>
            <path id="Path_80203" data-name="Path 80203" d="M112,236.636h1.515c.185,0,.288.082.3.229s-.1.245-.271.269a.732.732,0,0,1-.1,0h-2.9a.92.92,0,0,1-.161-.016.237.237,0,0,1-.216-.26.241.241,0,0,1,.269-.223c.521,0,1.043,0,1.564,0" transform="translate(-106.559 -228.893)" fill="#fff"/>
            <path id="Path_80204" data-name="Path 80204" d="M112.388,152.335c-.521,0-1.042,0-1.563,0-.125,0-.225-.052-.244-.169a.387.387,0,0,1,.07-.247.234.234,0,0,1,.173-.061q1.563-.005,3.125,0a.239.239,0,1,1,0,.477c-.521,0-1.042,0-1.563,0" transform="translate(-106.961 -146.888)" fill="#fff"/>
            <path id="Path_80205" data-name="Path 80205" d="M37.183,117.8c-.266,0-.532,0-.8,0-.123,0-.175-.034-.174-.166.005-.527,0-1.054,0-1.581,0-.116.034-.166.157-.165q.806.007,1.612,0c.129,0,.17.049.169.174q-.007.782,0,1.565c0,.125-.041.176-.169.173-.266-.006-.532,0-.8,0m-.016-1.732c-.206,0-.412,0-.618,0-.106,0-.159.025-.158.144,0,.423,0,.847,0,1.27,0,.1.032.146.14.145q.65-.006,1.3,0c.1,0,.134-.043.134-.136,0-.429,0-.857,0-1.286,0-.107-.048-.14-.15-.137-.217.005-.434,0-.65,0" transform="translate(-35.026 -112.1)" fill="#fff"/>
            <path id="Path_80206" data-name="Path 80206" d="M37.187,202.582c-.271,0-.543,0-.814,0-.122,0-.16-.045-.159-.163,0-.527,0-1.054,0-1.581,0-.13.047-.169.172-.168q.8.007,1.6,0c.127,0,.172.045.171.172,0,.522-.005,1.043,0,1.565,0,.139-.054.179-.184.176-.26-.007-.521,0-.781,0m-.012-.176c.217,0,.434,0,.651,0,.094,0,.143-.027.142-.127q0-.652,0-1.3c0-.088-.041-.125-.13-.125-.434,0-.868,0-1.3,0-.106,0-.143.044-.142.146q0,.635,0,1.271c0,.108.044.141.147.139.211-.005.423,0,.635,0" transform="translate(-35.028 -194.106)" fill="#fff"/>
            <path id="Path_80207" data-name="Path 80207" d="M37.166,287.372c-.261,0-.521,0-.782,0-.122,0-.175-.037-.173-.169q.008-.791,0-1.582c0-.13.048-.169.172-.168q.8.007,1.6,0c.13,0,.17.052.169.175,0,.522-.005,1.044,0,1.566,0,.14-.058.18-.186.177-.266,0-.532,0-.8,0m.011-.183c.217,0,.434,0,.651,0,.1,0,.138-.036.138-.132q0-.644,0-1.287c0-.094-.037-.137-.136-.137q-.651,0-1.3,0c-.1,0-.137.036-.137.134q0,.644,0,1.287c0,.1.037.136.135.134.217,0,.434,0,.651,0" transform="translate(-35.026 -276.116)" fill="#fff"/>
            <path id="Path_80208" data-name="Path 80208" d="M119.975,9.382a.318.318,0,1,1,.324-.317.327.327,0,0,1-.324.317" transform="translate(-115.728 -8.46)"/>
            <path id="Path_80209" data-name="Path 80209" d="M49.046,131.709c-.112-.139-.2-.255-.3-.362-.025-.028-.081-.027-.123-.039,0,.043-.01.1.011.127.1.141.211.274.317.412.062.081.121.079.183,0l.109-.141c.147-.187.3-.372.439-.564a.572.572,0,0,0,.054-.18.866.866,0,0,0-.172.1,1.348,1.348,0,0,0-.142.177l-.378.474" transform="translate(-47.034 -126.678)" fill="#fff"/>
            <path id="Path_80210" data-name="Path 80210" d="M48.992,301.447c-.107-.13-.194-.245-.293-.35-.028-.029-.088-.028-.133-.041.006.043,0,.1.02.128.1.14.213.274.32.41.051.065.1.077.159.008.205-.259.411-.518.612-.781.019-.025.006-.076.007-.115a.517.517,0,0,0-.124.029c-.026.013-.041.049-.061.075l-.506.637" transform="translate(-46.977 -290.868)" fill="#fff"/>
            <path id="Path_80211" data-name="Path 80211" d="M49.046,131.709l.378-.474a1.348,1.348,0,0,1,.142-.177.866.866,0,0,1,.172-.1.572.572,0,0,1-.054.18c-.141.192-.292.376-.439.564l-.109.141c-.061.078-.12.08-.183,0-.105-.138-.216-.271-.317-.412-.021-.03-.008-.084-.011-.127.042.012.1.011.123.039.1.107.185.224.3.362" transform="translate(-47.034 -126.678)" fill="#fff"/>
            <path id="Path_80212" data-name="Path 80212" d="M49.253,216.335l.514-.646c.017-.021.028-.051.05-.063a.771.771,0,0,1,.121-.044c0,.043.017.1,0,.128a2.528,2.528,0,0,1-.176.232c-.137.175-.275.348-.411.524-.066.085-.125.09-.193,0-.1-.134-.21-.262-.307-.4-.022-.032-.007-.09-.009-.137.041.015.094.018.12.046.1.108.185.223.292.356" transform="translate(-47.24 -208.53)" fill="#fff"/>
            <path id="Path_80213" data-name="Path 80213" d="M48.992,301.447l.506-.637c.02-.025.035-.062.061-.075a.517.517,0,0,1,.124-.029c0,.039.012.09-.007.115-.2.263-.406.522-.612.781-.055.069-.109.056-.159-.008-.107-.136-.218-.27-.32-.41-.023-.031-.014-.085-.02-.128.045.013.105.011.133.041.1.105.186.221.293.35" transform="translate(-46.977 -290.868)" fill="#fff"/>
          </g>
        </g>
        <g id="Group_13934" data-name="Group 13934" transform="translate(6 101.727)">
          <g id="Group_13933" data-name="Group 13933" clip-path="url(#clip-path-3)">
            <path id="Path_80214" data-name="Path 80214" d="M5.966,0c.206.028.412.051.616.085A5.614,5.614,0,1,1,.108,6.7C.062,6.458.036,6.211,0,5.966v-.7a.78.78,0,0,0,.019-.1A4.756,4.756,0,0,1,.245,3.978,5.548,5.548,0,0,1,4.648.086c.2-.042.41-.058.616-.086ZM5.619,10.994A5.379,5.379,0,1,0,.236,5.624a5.372,5.372,0,0,0,5.383,5.37" fill="#fff"/>
            <path id="Path_80215" data-name="Path 80215" d="M112.867,99.47a1.327,1.327,0,0,0-1.175-1.177v-.457h-.235V98.3a1.325,1.325,0,0,0-1.172,1.178h-.457V99.7h.46a1.322,1.322,0,0,0,1.178,1.172v.458h.231c0-.128,0-.252,0-.375,0-.063.011-.093.085-.107a1.263,1.263,0,0,0,1.038-.935c.021-.069.032-.141.049-.22h.454V99.47Zm-1.649-4.853a.18.18,0,0,1-.007.04c-.021.034-.041.069-.064.1a7.975,7.975,0,0,1-1.753,1.872,6.487,6.487,0,0,1-2.672,1.332c-.077.016-.13.06-.11.146s.086.105.162.084c.26-.073.526-.13.776-.228a8.159,8.159,0,0,0,3.777-3.052c.039-.056.075-.114.121-.186.02.069.037.12.051.171.02.076.068.116.145.1s.1-.083.079-.156c-.038-.149-.071-.3-.122-.443a.161.161,0,0,0-.127-.088,3.321,3.321,0,0,0-.485.131.152.152,0,0,0-.068.134c.01.037.081.072.13.079a.516.516,0,0,0,.167-.034m-2.1,5.224q0-.679,0-1.358c0-.129-.035-.166-.159-.167-.208,0-.416,0-.624,0-.1,0-.149.043-.149.145q0,1.375,0,2.749c0,.114.037.148.153.148.2,0,.394,0,.591,0,.162,0,.186-.023.186-.182q0-.668,0-1.336m-1.4.224c0-.373,0-.745,0-1.118,0-.129-.029-.158-.153-.159q-.312,0-.625,0c-.125,0-.153.03-.154.159q0,1.129,0,2.258c0,.121.035.154.159.155.2,0,.395,0,.592,0,.153,0,.181-.027.181-.176q0-.559,0-1.118m4.2-2.356a.047.047,0,0,0,.006-.02q0-.8,0-1.59a.122.122,0,0,0-.141-.14c-.2,0-.409,0-.614,0-.153,0-.177.025-.177.18q0,.982,0,1.963c0,.03,0,.061.008.1a.611.611,0,0,1,.082-.026c.112-.018.145-.077.144-.193-.008-.5,0-1.009,0-1.513,0-.087,0-.174,0-.267h.471v.128c0,.387,0,.775,0,1.162a.155.155,0,0,0,.042.107,1.333,1.333,0,0,0,.18.11M110.288,98.8c.082-.1.144-.171.2-.247a.179.179,0,0,0,.034-.1q0-.472,0-.943c0-.116-.034-.147-.153-.148l-.581,0c-.177,0-.2.02-.2.193q0,.85,0,1.7c0,.034,0,.069,0,.1l.23-.152V97.6h.463Zm0,1.565v.728h-.467V99.968l-.23-.155q0,.7,0,1.393a.118.118,0,0,0,.136.133c.215,0,.431,0,.646,0,.113,0,.148-.038.149-.154,0-.157,0-.314,0-.471a.164.164,0,0,0-.026-.09c-.058-.078-.122-.152-.208-.256m.707.606c0,.069,0,.127,0,.185,0,.17.052.207.223.167.011-.356.05-.261-.223-.352" transform="translate(-104.265 -92.234)" fill="#fff"/>
            <path id="Path_80216" data-name="Path 80216" d="M256.135,256.535h.454v.227h-.454c-.017.079-.028.151-.049.22a1.262,1.262,0,0,1-1.038.935c-.074.014-.086.044-.085.107,0,.123,0,.246,0,.375h-.231v-.458a1.322,1.322,0,0,1-1.178-1.172h-.46v-.229h.457a1.325,1.325,0,0,1,1.172-1.178V254.9h.235v.457a1.327,1.327,0,0,1,1.175,1.176m-1.412.927c-.034-.009-.069-.017-.1-.028a.776.776,0,0,1-.547-.536c-.032-.11-.078-.153-.186-.132-.024,0-.048.006-.072.009a.992.992,0,0,0,.908.9Zm-.909-.935.063.008c.106.016.164-.012.2-.133a.748.748,0,0,1,.443-.5c.066-.029.137-.048.2-.071v-.216a1.013,1.013,0,0,0-.907.909m1.154-.907c0,.027,0,.045,0,.062a.151.151,0,0,0,.132.2.749.749,0,0,1,.5.455c.027.062.043.13.066.2h.112l.1,0a1.01,1.01,0,0,0-.909-.91m.7,1.151a.192.192,0,0,0-.015.032.825.825,0,0,1-.627.645.094.094,0,0,0-.055.063,1.169,1.169,0,0,0,0,.169.992.992,0,0,0,.9-.909Zm-1.385-.013a.533.533,0,0,0,.431.451c.12-.222-.113-.287-.2-.417-.027-.041-.146-.024-.235-.034m.009-.233a.366.366,0,0,0,.43-.439.518.518,0,0,0-.43.439m1.118.25a.363.363,0,0,0-.431.435.525.525,0,0,0,.431-.435m-.43-.691a.353.353,0,0,0,.428.434.537.537,0,0,0-.428-.434" transform="translate(-247.534 -249.299)"/>
            <path id="Path_80217" data-name="Path 80217" d="M111.217,94.618a.517.517,0,0,1-.167.034c-.049-.007-.119-.042-.13-.079a.152.152,0,0,1,.068-.134,3.317,3.317,0,0,1,.485-.131.161.161,0,0,1,.127.088c.051.144.085.294.122.443.018.072,0,.136-.079.156s-.125-.021-.145-.1c-.014-.051-.03-.1-.051-.171-.046.071-.082.13-.121.186a8.159,8.159,0,0,1-3.777,3.052c-.25.1-.517.155-.776.228-.076.022-.143,0-.162-.084s.032-.13.11-.146a6.487,6.487,0,0,0,2.672-1.332,7.975,7.975,0,0,0,1.753-1.872c.022-.033.043-.068.064-.1a.18.18,0,0,0,.007-.04" transform="translate(-104.265 -92.235)" fill="#fff"/>
            <path id="Path_80218" data-name="Path 80218" d="M179.317,278.218q0,.668,0,1.336c0,.158-.025.181-.186.182-.2,0-.394,0-.591,0-.117,0-.153-.034-.153-.148q0-1.375,0-2.749c0-.1.051-.146.149-.145.208,0,.416,0,.624,0,.125,0,.159.037.159.167q0,.679,0,1.358m-.694,1.276h.458v-2.559h-.458Z" transform="translate(-174.465 -270.612)" fill="#fff"/>
            <path id="Path_80219" data-name="Path 80219" d="M115.453,299.415q0,.559,0,1.118c0,.15-.028.176-.181.176-.2,0-.395,0-.592,0-.124,0-.159-.034-.159-.155q0-1.129,0-2.258c0-.128.029-.158.154-.158q.312,0,.625,0c.125,0,.153.03.153.159,0,.373,0,.745,0,1.118m-.693-1.046v2.1h.462c0-.292,0-.576,0-.86,0-.38,0-.76,0-1.14,0-.033-.032-.091-.053-.093-.134-.008-.268,0-.408,0" transform="translate(-112.004 -291.585)" fill="#fff"/>
            <path id="Path_80220" data-name="Path 80220" d="M307.058,171.236a1.331,1.331,0,0,1-.18-.11.156.156,0,0,1-.042-.107c0-.387,0-.775,0-1.162v-.128h-.471v.267c0,.5,0,1.009,0,1.513,0,.116-.031.176-.144.193a.613.613,0,0,0-.082.026c0-.036-.008-.067-.008-.1q0-.982,0-1.963c0-.155.024-.179.177-.18.2,0,.409,0,.614,0a.122.122,0,0,1,.141.14q0,.8,0,1.59a.047.047,0,0,1-.006.02" transform="translate(-299.405 -165.762)" fill="#fff"/>
            <path id="Path_80221" data-name="Path 80221" d="M242.955,234.747v-1.2h-.463v1.6l-.23.152c0-.028,0-.062,0-.1q0-.85,0-1.7c0-.173.021-.194.2-.193l.581,0c.119,0,.152.032.153.148q0,.472,0,.943a.179.179,0,0,1-.034.1c-.056.076-.117.146-.2.247" transform="translate(-236.933 -228.181)" fill="#fff"/>
            <path id="Path_80222" data-name="Path 80222" d="M242.989,345.382c.085.1.15.178.208.256a.164.164,0,0,1,.026.09c0,.157,0,.314,0,.471,0,.116-.036.153-.149.154-.215,0-.431,0-.646,0a.118.118,0,0,1-.136-.133q0-.7,0-1.393l.23.155v1.125h.467Z" transform="translate(-236.967 -337.252)" fill="#fff"/>
            <path id="Path_80223" data-name="Path 80223" d="M306.138,397.5c.274.091.234,0,.223.352-.171.04-.221,0-.223-.167,0-.058,0-.116,0-.185" transform="translate(-299.409 -388.766)" fill="#fff"/>
            <path id="Path_80224" data-name="Path 80224" d="M286.73,340.187v.212a.992.992,0,0,1-.908-.9c.024,0,.048,0,.072-.009.109-.021.154.022.186.132a.776.776,0,0,0,.547.536c.034.011.069.019.1.028" transform="translate(-279.54 -332.025)" fill="#fff"/>
            <path id="Path_80225" data-name="Path 80225" d="M338.724,339.943h.2a.992.992,0,0,1-.9.909,1.164,1.164,0,0,1,0-.169.093.093,0,0,1,.055-.063.825.825,0,0,0,.627-.645.185.185,0,0,1,.015-.032" transform="translate(-330.595 -332.472)" fill="#fff"/>
            <path id="Path_80226" data-name="Path 80226" d="M306.925,339.351c.09.011.209-.007.235.034.083.129.316.194.2.417a.533.533,0,0,1-.431-.451" transform="translate(-300.18 -331.893)" fill="#fff"/>
            <path id="Path_80227" data-name="Path 80227" d="M307.324,309.256a.518.518,0,0,1,.43-.438.366.366,0,0,1-.43.438" transform="translate(-300.57 -302.031)" fill="#fff"/>
            <path id="Path_80228" data-name="Path 80228" d="M338.738,339.969a.525.525,0,0,1-.431.435.363.363,0,0,1,.431-.435" transform="translate(-330.866 -332.493)" fill="#fff"/>
            <rect id="Rectangle_2216" data-name="Rectangle 2216" width="0.458" height="2.559" transform="translate(4.158 6.323)"/>
            <path id="Path_80229" data-name="Path 80229" d="M125.4,308.637c.14,0,.274,0,.408,0,.02,0,.052.06.053.093,0,.38,0,.76,0,1.14,0,.284,0,.568,0,.86H125.4Z" transform="translate(-122.643 -301.853)"/>
          </g>
        </g>
        <g id="Group_13938" data-name="Group 13938" transform="translate(71.225 2)">
          <g id="Group_13937" data-name="Group 13937" clip-path="url(#clip-path-4)">
            <path id="Path_80244" data-name="Path 80244" d="M378.388,163.747a4.026,4.026,0,0,1-.655.74l-1.455-1.455c.183-.191.36-.4.56-.579a.369.369,0,0,1,.536.037c.294.293.589.586.879.882a1.35,1.35,0,0,1,.134.193Z" transform="translate(-367.729 -158.665)" fill="#fff"/>
            <path id="Path_80245" data-name="Path 80245" d="M8.026,4.228V4.108q0-1.752,0-3.5c0-.174-.005-.18-.177-.18H6.864V.558c0,.28,0,.56,0,.839a.7.7,0,0,1-.734.75q-1.9.01-3.809,0A.7.7,0,0,1,1.586,1.4c0-.28,0-.56,0-.839V.423H1.2c-.219,0-.438,0-.658,0C.459.421.418.455.424.543c0,.026,0,.053,0,.079q0,4.8,0,9.595c0,.034,0,.068,0,.1,0,.064.029.1.1.1H7.833c.193,0,.193,0,.193-.2,0-.533,0-1.066,0-1.6A.221.221,0,0,1,8.1,8.445c.109-.1.212-.214.338-.342,0,.062.009.1.009.131q0,1.026,0,2.053a.5.5,0,0,1-.563.557H.57A.506.506,0,0,1,0,10.269q0-4.848,0-9.7A.506.506,0,0,1,.57,0H2.064a6.6,6.6,0,0,0-.057,1.348c-.007.277.1.376.371.376H6.085c.25,0,.355-.106.356-.358,0-.163,0-.325,0-.488C6.433.589,6.423.3,6.414,0c0,0,.038,0,.071,0H7.9a.5.5,0,0,1,.543.541q0,1.6,0,3.21a.244.244,0,0,1-.06.147c-.105.118-.22.228-.331.342l-.028-.012" transform="translate(0 0)" fill="#fff"/>
            <path id="Path_80246" data-name="Path 80246" d="M184.733,203.344l1.484,1.485a.546.546,0,0,0-.095.064q-1.676,1.674-3.353,3.348a.753.753,0,0,1-.284.171c-.554.185-1.112.359-1.669.537a.466.466,0,0,1-.121.027c-.088,0-.137-.054-.121-.149a1.743,1.743,0,0,1,.066-.228c.166-.521.33-1.043.5-1.563a.6.6,0,0,1,.133-.231q1.711-1.72,3.428-3.433c.011-.011.022-.02.031-.028m-.009.694c0-.13-.1-.195-.19-.145a.518.518,0,0,0-.1.088l-1.666,1.666-.937.938c-.11.11-.126.182-.057.249s.14.044.249-.064l.288-.288q1.161-1.162,2.322-2.324a1.018,1.018,0,0,0,.092-.119m-3.379,3.279c-.071.22-.147.451-.218.685a.108.108,0,0,0,.025.088q.147.156.3.3a.106.106,0,0,0,.086.025c.233-.07.464-.146.687-.217l-.884-.884" transform="translate(-176.468 -198.724)" fill="#fff"/>
            <path id="Path_80247" data-name="Path 80247" d="M78.849,150.476l.518-.519,1.315,1.316,2.5-2.5.537.539L80.7,152.33l-1.855-1.853" transform="translate(-77.058 -145.39)" fill="#fff"/>
            <path id="Path_80248" data-name="Path 80248" d="M234.591,226.947a1.021,1.021,0,0,1-.092.119q-1.16,1.163-2.322,2.324l-.288.288c-.109.109-.183.128-.249.065s-.053-.138.057-.249l.937-.938,1.666-1.666a.517.517,0,0,1,.1-.088c.088-.05.191.015.19.145" transform="translate(-226.335 -221.633)"/>
            <path id="Path_80249" data-name="Path 80249" d="M205.161,378.214l.884.884c-.222.071-.454.146-.687.217a.106.106,0,0,1-.086-.025q-.157-.147-.3-.3a.108.108,0,0,1-.025-.088c.071-.234.147-.465.218-.685" transform="translate(-200.285 -369.621)"/>
          </g>
        </g>
      </g>
    </g>
  </g>
</svg>
